/* XPM */
static char * brave_desktop_xpm[] = {
"64 64 383 2",
"  	c None",
". 	c #FF3E1B",
"+ 	c #FF3A1E",
"@ 	c #FF3A1D",
"# 	c #FF391C",
"$ 	c #FF381B",
"% 	c #FF371A",
"& 	c #FF3619",
"* 	c #FF3518",
"= 	c #FF3517",
"- 	c #FF3416",
"; 	c #FF3316",
"> 	c #FF3214",
", 	c #FF3114",
"' 	c #FF3012",
") 	c #FF2F11",
"! 	c #FF2D0F",
"~ 	c #FF2D0E",
"{ 	c #FF2C0D",
"] 	c #FF2708",
"^ 	c #FF401B",
"/ 	c #FF3B1F",
"( 	c #FF391D",
"_ 	c #FF3719",
": 	c #FF3618",
"< 	c #FF3417",
"[ 	c #FF3315",
"} 	c #FF3113",
"| 	c #FF2E10",
"1 	c #FF2A0B",
"2 	c #FF2707",
"3 	c #FF431B",
"4 	c #FF3C1F",
"5 	c #FF3B1E",
"6 	c #FF381C",
"7 	c #FF3215",
"8 	c #FF2F10",
"9 	c #FF2B0C",
"0 	c #FF4319",
"a 	c #FF3C20",
"b 	c #FF2E0F",
"c 	c #FF2B0D",
"d 	c #FF280A",
"e 	c #FF4619",
"f 	c #FF3E22",
"g 	c #FF3D21",
"h 	c #FF3011",
"i 	c #FF290A",
"j 	c #FF2808",
"k 	c #FF4817",
"l 	c #FF2C0E",
"m 	c #FF2909",
"n 	c #FF2507",
"o 	c #FF4D1A",
"p 	c #FF4821",
"q 	c #FF4525",
"r 	c #FF4227",
"s 	c #FF4226",
"t 	c #FF4323",
"u 	c #FF441F",
"v 	c #FF3F23",
"w 	c #FF3E23",
"x 	c #FF3D20",
"y 	c #FF2809",
"z 	c #FF2506",
"A 	c #FF2606",
"B 	c #FF2405",
"C 	c #FF2404",
"D 	c #FF2303",
"E 	c #FF2202",
"F 	c #FF2203",
"G 	c #FF5404",
"H 	c #FF510B",
"I 	c #FF510C",
"J 	c #FF4E0F",
"K 	c #FF4C15",
"L 	c #FF471E",
"M 	c #FF4125",
"N 	c #FF4024",
"O 	c #FF2A0C",
"P 	c #FF2607",
"Q 	c #FF2001",
"R 	c #FF2100",
"S 	c #FF5500",
"T 	c #FF5305",
"U 	c #FF4916",
"V 	c #FF2000",
"W 	c #FF4E0C",
"X 	c #FF3C1B",
"Y 	c #FF3F1E",
"Z 	c #FF3415",
"` 	c #FF5501",
" .	c #FF8C67",
"..	c #FF6945",
"+.	c #FF4F2A",
"@.	c #FF3F1F",
"#.	c #FF391A",
"$.	c #FF5834",
"%.	c #FF9F87",
"&.	c #FFF1EE",
"*.	c #FFFFFF",
"=.	c #FFC4B9",
"-.	c #FF6850",
";.	c #FF4328",
">.	c #FF6751",
",.	c #FF482E",
"'.	c #FFAB81",
").	c #FFDFD6",
"!.	c #FFAA92",
"~.	c #FF8362",
"{.	c #FF7856",
"].	c #FFA891",
"^.	c #FFF6F4",
"/.	c #FFCAC2",
"(.	c #FF7662",
"_.	c #FF654E",
":.	c #FF8575",
"<.	c #FFBCB3",
"[.	c #FFF6F6",
"}.	c #FFE4E1",
"|.	c #FF884D",
"1.	c #FFFEFE",
"2.	c #FFC5BD",
"3.	c #FF6C23",
"4.	c #FFF5F0",
"5.	c #FF9688",
"6.	c #FF5A08",
"7.	c #FFDECE",
"8.	c #FF634C",
"9.	c #FF2200",
"0.	c #FFB794",
"a.	c #FFEFED",
"b.	c #FF894E",
"c.	c #FFEFE7",
"d.	c #FFDCCB",
"e.	c #FFCCB3",
"f.	c #FFBE9E",
"g.	c #FFB895",
"h.	c #FFCBB2",
"i.	c #FFF0E9",
"j.	c #FFFBFB",
"k.	c #FFCEC7",
"l.	c #FFACA1",
"m.	c #FF9F92",
"n.	c #FFA498",
"o.	c #FFB3A9",
"p.	c #FFC7BF",
"q.	c #FFDDD9",
"r.	c #FFF9F9",
"s.	c #FFC7C0",
"t.	c #FF2102",
"u.	c #FF6113",
"v.	c #FFEEE6",
"w.	c #FF9764",
"x.	c #FF5D0D",
"y.	c #FF7531",
"z.	c #FFA67B",
"A.	c #FFDFD1",
"B.	c #FFF3F2",
"C.	c #FFACA0",
"D.	c #FF6752",
"E.	c #FF5037",
"F.	c #FFB6AC",
"G.	c #FF8271",
"H.	c #FFC1A3",
"I.	c #FFF8F5",
"J.	c #FFC1A2",
"K.	c #FF8142",
"L.	c #FF5400",
"M.	c #FF4F00",
"N.	c #FFC5AF",
"O.	c #FF4524",
"P.	c #FF3519",
"Q.	c #FF8776",
"R.	c #FFDBD6",
"S.	c #FFF7F6",
"T.	c #FF3D22",
"U.	c #FF7937",
"V.	c #FFEAE0",
"W.	c #FFAB82",
"X.	c #FF6B21",
"Y.	c #FFBA9F",
"Z.	c #FF3714",
"`.	c #FF6B56",
" +	c #FFBFB6",
".+	c #FFFCFC",
"++	c #FFB5AB",
"@+	c #FF5600",
"#+	c #FFBF9F",
"$+	c #FFFDFD",
"%+	c #FFC7AC",
"&+	c #FF671C",
"*+	c #FF4E00",
"=+	c #FFDACC",
"-+	c #FF5C40",
";+	c #FF7B69",
">+	c #FFEAE7",
",+	c #FFC6AA",
"'+	c #FFEBE1",
")+	c #FF5A09",
"!+	c #FF5004",
"~+	c #FFFAF8",
"{+	c #FF8671",
"]+	c #FF935D",
"^+	c #FF6920",
"/+	c #FF6E2D",
"(+	c #FFB0A2",
"_+	c #FFD6D1",
":+	c #FF2101",
"<+	c #FFB997",
"[+	c #FF5502",
"}+	c #FF8F5E",
"|+	c #FFD9D3",
"1+	c #FF806E",
"2+	c #FFEAE8",
"3+	c #FF4025",
"4+	c #FF5602",
"5+	c #FFC3A5",
"6+	c #FF9F70",
"7+	c #FFB08D",
"8+	c #FFEEEC",
"9+	c #FFF0EE",
"0+	c #FF472D",
"a+	c #FF5704",
"b+	c #FFCBB1",
"c+	c #FFE7DC",
"d+	c #FF5906",
"e+	c #FFD0BC",
"f+	c #FF4B31",
"g+	c #FF7F6D",
"h+	c #FFF4F3",
"i+	c #FFD3BD",
"j+	c #FF8D54",
"k+	c #FFF0EA",
"l+	c #FF735F",
"m+	c #FFDEDA",
"n+	c #FFF8F8",
"o+	c #FF5942",
"p+	c #FF5D0C",
"q+	c #FFDAC8",
"r+	c #FFDFCF",
"s+	c #FF5F11",
"t+	c #FF9586",
"u+	c #FF6F5B",
"v+	c #FF644E",
"w+	c #FF6011",
"x+	c #FFE1D2",
"y+	c #FFA87D",
"z+	c #FF681F",
"A+	c #FFA294",
"B+	c #FF2608",
"C+	c #FF6518",
"D+	c #FFE7DB",
"E+	c #FFDBCA",
"F+	c #FF6315",
"G+	c #FF9466",
"H+	c #FFECE6",
"I+	c #FFFAF9",
"J+	c #FFD2C9",
"K+	c #FF9F8E",
"L+	c #FF7D6B",
"M+	c #FF7B68",
"N+	c #FF6D24",
"O+	c #FFF3ED",
"P+	c #FFEDE5",
"Q+	c #FF864A",
"R+	c #FF4900",
"S+	c #FF4300",
"T+	c #FF4D16",
"U+	c #FF5324",
"V+	c #FF3605",
"W+	c #FF2C00",
"X+	c #FF2700",
"Y+	c #FF3013",
"Z+	c #FFB1A6",
"`+	c #FFAD85",
" @	c #FFC3A6",
".@	c #FF5D17",
"+@	c #FF3D00",
"@@	c #FF3800",
"#@	c #FF3200",
"$@	c #FF2D00",
"%@	c #FF2600",
"&@	c #FF715D",
"*@	c #FFEDEB",
"=@	c #FFF5F4",
"-@	c #FFB793",
";@	c #FFF3EF",
">@	c #FF8E61",
",@	c #FF4620",
"'@	c #FFC5BB",
")@	c #FF290B",
"!@	c #FF5805",
"~@	c #FFBAA2",
"{@	c #FF4206",
"]@	c #FF6844",
"^@	c #FF7461",
"/@	c #FF8346",
"(@	c #FF8F6C",
"_@	c #FF3A03",
":@	c #FFF5F3",
"<@	c #FFC3BB",
"[@	c #FFAA80",
"}@	c #FFF2EE",
"|@	c #FF5622",
"1@	c #FF3700",
"2@	c #FFAF9C",
"3@	c #FFF6F5",
"4@	c #FF2300",
"5@	c #FFB089",
"6@	c #FFF5F2",
"7@	c #FF6B37",
"8@	c #FF3E00",
"9@	c #FF3504",
"0@	c #FFBEB1",
"a@	c #FF874B",
"b@	c #FFECE5",
"c@	c #FF6B30",
"d@	c #FF2F04",
"e@	c #FFAA9B",
"f@	c #FFC8C0",
"g@	c #FF5703",
"h@	c #FFDBC9",
"i@	c #FFD0BA",
"j@	c #FF5F18",
"k@	c #FF4800",
"l@	c #FF5A43",
"m@	c #FFEDE4",
"n@	c #FFE5D8",
"o@	c #FF4B13",
"p@	c #FF5A2C",
"q@	c #FF3101",
"r@	c #FFAB9F",
"s@	c #FF8E7E",
"t@	c #FF691F",
"u@	c #FFC9AF",
"v@	c #FFF4EF",
"w@	c #FFD2BC",
"x@	c #FF8D55",
"y@	c #FF5002",
"z@	c #FF804F",
"A@	c #FFC9B6",
"B@	c #FFE5DF",
"C@	c #FF957F",
"D@	c #FF3C1A",
"E@	c #FF9E91",
"F@	c #FFE8E5",
"G@	c #FFDFDB",
"H@	c #FF725E",
"I@	c #FF9562",
"J@	c #FFE6DB",
"K@	c #FFA79B",
"L@	c #FF3C21",
"M@	c #FF915B",
"N@	c #FFFAFA",
"O@	c #FFA497",
"P@	c #FF371B",
"Q@	c #FF712A",
"R@	c #FFF8F7",
"S@	c #FF8A7A",
"T@	c #FF8F80",
"U@	c #FFD5C0",
"V@	c #FF6D59",
"W@	c #FFB18B",
"X@	c #FFDCD8",
"Y@	c #FF442A",
"Z@	c #FF8A52",
"`@	c #FF6927",
" #	c #FFE1D6",
".#	c #FF8A75",
"+#	c #FF510D",
"@#	c #FFC5B1",
"##	c #FFF2EF",
"$#	c #FF6544",
"%#	c #FF4402",
"&#	c #FF9F82",
"*#	c #FFC9BB",
"=#	c #FF5228",
"-#	c #FF3100",
";#	c #FF4200",
">#	c #FF4A00",
",#	c #FF3900",
"'#	c #FF3300",
"                                            . + @ # $ % & * = - ; > , ' ' ) ! ! ~ { ]                                           ",
"                                          ^ / + ( # $ % _ : < ; [ > } } ) | | ~ { { 1 2                                         ",
"                                        3 4 4 5 # 6 $ % & * = - ; 7 } ' ' 8 | ! { 9 9 1                                         ",
"                                      0 a a 5 + @ # $ % & * < ; [ > , ' ) ) b ! ~ c 9 1 d                                       ",
"                                    e f g a / @ ( # % % & * = < [ > } } h ) b ~ { c 1 1 i j                                     ",
"                                  k f g a a 5 5 @ 6 $ % & : < - 7 7 } ' ) ) b ! l 9 9 i i m n                                   ",
"                    o p q r s t u v w f x a / + # # $ % & * = - [ > } } ) ) b ! { { 9 1 i y ] z A B C D E F                     ",
"                  G H I J K L M N v v g g / / 5 ( $ $ % : * = ; [ > > ' ' | b b l 9 O 1 y y j P A B D E Q Q R                   ",
"                S S S S S S S T U v f f g a / @ @ 6 $ % & * < - ; > } } ) ) | ~ ~ c 9 1 i y ] A E Q R V R V R R                 ",
"              S S S S S S S S S S W v g a a 5 + @ $ $ % & : * X Y Z , ' ) ) b ! l 9 9 i m y A Q V R V V V V V V V               ",
"              S S S S S S S S S S `  ...+.@.5 5 # 6 $ #.$.%.&.*.*.*.=.-.* ) b ! { 9 9 ) ;.>.,.V R V V R V V R V V R             ",
"            S S S S S S S S S S S '.*.*.*.*.).!.~.{.].^.*.*.*.*.*.*.*.*.*./.(._.:.<.[.*.*.*.}.7 V V V V V R V R V R R           ",
"            S S S S S S S S S S |.1.*.*.*.*.*.*.*.*.*.*.*.*.*.*.*.*.*.*.*.*.*.*.*.*.*.*.*.*.*.2.D V V V R V V V V R R           ",
"            S S S S S S S S S 3.4.*.*.*.*.*.*.*.*.*.*.*.*.*.*.*.*.*.*.*.*.*.*.*.*.*.*.*.*.*.*.*.5.V V R V V R V R V             ",
"              S S S S S S S 6.7.*.*.*.*.*.*.*.*.*.*.*.*.*.*.*.*.*.*.*.*.*.*.*.*.*.*.*.*.*.*.*.*.1.8.V V V V R V V 9.            ",
"              S S S S S S S 0.*.*.*.*.*.*.*.*.*.*.*.*.*.*.*.*.*.*.*.*.*.*.*.*.*.*.*.*.*.*.*.*.*.*.a.# V V V V R V R             ",
"              S S S S S S b.*.*.*.*.c.d.e.f.g.g.h.i.*.*.*.*.*.*.*.*.*.*.*.*.j.k.l.m.n.o.p.q.r.*.*.*.s.t.R R R V V R             ",
"            S S S S S S u.i.*.*.*.v.w.x.S S S S S ` y.z.A.*.*.*.*.*.*.B.C.D.! V R V V V V E.F.*.*.*.*.G.V V V V R R             ",
"            S S S S S S H.*.*.*.*.*.*.I.J.K.` S S S S L.M.N.*.*.*.*.*.O.R V V V V V P.Q.R.*.*.*.*.*.*.S.T.V R V V V R           ",
"          S S S S S S U.*.*.*.*.*.*.*.*.*.*.V.W.X.S S L.M.Y.*.*.*.*.*.Z.R V V z `. +.+*.*.*.*.*.*.*.*.*.++V V R V R R           ",
"          @+S S S S S #+*.*.*.*.*.*.*.*.*.*.*.*.$+%+&+S *+=+*.*.*.*.*.-+R Q ;+>+*.*.*.*.*.*.*.*.*.*.*.*.$+; V V R V V           ",
"          @+S S S S S ,+*.*.*.*.*.*.*.*.*.*.*.*.*.*.'+)+!+~+*.*.*.*.*.{+R Q.*.*.*.*.*.*.*.*.*.*.*.*.*.*.*./ R V V R V           ",
"          @+S S S S S ]+*.*.*.*.*.*.*.*.*.*.*.*.*.*.*.^+/+*.*.*.*.*.*.(+R ++*.*.*.*.*.*.*.*.*.*.*.*.*.*._+:+V R V V 9.          ",
"            S S S S S S <+*.*.*.*.*.*.*.*.*.*.*.*.*.V.[+}+*.*.*.*.*.*.|+R 1+*.*.*.*.*.*.*.*.*.*.*.*.*.2+3+V V V V V 9.          ",
"            S S S S S S 4+5+*.*.*.*.*.*.*.*.*.*.*.*.6+L.7+*.*.*.*.*.*.j.2 ! 8+*.*.*.*.*.*.*.*.*.*.*.9+0+R V R R R V             ",
"            S S S S S S S a+b+*.*.*.*.*.*.*.*.*.*.c+d+L.e+*.*.*.*.*.*.*.f+V g+*.*.*.*.*.*.*.*.*.*.h+E.V V V V V V R             ",
"              S S S S S S S 6.i+*.*.*.*.*.*.*.*.*.j+S L.k+*.*.*.*.*.*.*.l+V B m+*.*.*.*.*.*.*.*.n+o+V R V V R V V R             ",
"              S S S S S S S S p+q+*.*.*.*.*.*.*.r+S S s+*.*.*.*.*.*.*.*.t+V V u+*.*.*.*.*.*.*.j.v+V V V V R V R V 9.            ",
"              S S S S S S S S S w+x+*.*.*.*.*.*.y+S S z+*.*.*.*.*.*.*.*.A+V V B+*.*.*.*.*.*.$+u+R V V V R V V V V               ",
"              S S S S S S S S S S C+D+*.*.*.*.*.E+F+S L.G+N.H+*.*.I+J+K+g V V L+*.*.*.*.*.*.M+V V V V R V V R V R               ",
"                S S S S S S S S S S N+O+*.*.*.*.*.P+Q+L.M.R+S+T+U+V+W+X+R Y+Z+*.*.*.*.*.*.t+V V V R V V V V R V V               ",
"                S S S S S S S S S S S `+*.*.*.*.*.*.*. @.@R+S++@@@#@$@%@&@*@*.*.*.*.*.*.=@B R V V V R V V V V R R               ",
"                S S S S S S S S S S S -@*.*.*.*.*.*.*.*.;@>@S++@@@#@,@'@*.*.*.*.*.*.*.*..+)@V V V R V V R R R V                 ",
"                @+S S S S S S S S S !@c.*.*.*.*.*.*.*.*.*.*.~@{@@@]@&.*.*.*.*.*.*.*.*.*.*.^@V R V V V V V V V V                 ",
"                  S S S S S S S S S /@*.*.*.*.*.*.*.*.*.*.*.*.(@_@:@*.*.*.*.*.*.*.*.*.*.*.<@V V R V R R V V R R                 ",
"                  S S S S S S S S S [@*.*.*.*.*.*.*.*.*.*.*.}@|@1@2@*.*.*.*.*.*.*.*.*.*.*.3@V V V V V V R V V 4@                ",
"                  S S S S S S S S S 5@*.*.*.*.*.*.*.*.*.*.6@7@8@@@9@0@*.*.*.*.*.*.*.*.*.*..+t.R V R V V V V V                   ",
"                  @+S S S S S S S S a@*.*.*.*.*.*.*.*.*.b@c@S++@1@#@d@e@*.*.*.*.*.*.*.*.*.f@V V V V V R R V 9.                  ",
"                    S S S S S S S S g@h@*.*.*.*.*.*.*.i@j@k@S+8@1@#@W+X+M+3@*.*.*.*.*.*.1.l@V V V R V V V R R                   ",
"                    S S S S S S S S S N+m@*.*.*.*.n@j+L.*+R+S+o@p@q@W+X+R ( r@.+*.*.*.*.s@V R V V V V R V V 9.                  ",
"                    S S S S S S S S S S t@u@v@w@x@g@S L.y@z@A@j.*.B@C@D@R V V w E@F@G@H@R V V R V V R V R V                     ",
"                    @+S S S S S S S S S S S S S S S a+I@J@*.*.*.*.*.*.r.K@L@V V V V R V V V V V V R V V V V                     ",
"                      S S S S S S S S S S S S S 4+M@D+*.*.*.*.*.*.*.*.*.*.N@O@P@V V V V V V V V R V V R V V                     ",
"                      @+S S S S S S S S S S S Q@x+*.*.*.*.*.*.*.*.*.*.*.*.*.*.R@S@V V V V R V V V V V V V                       ",
"                      S S S S S S S S S S S S N+c.*.*.*.*.*.*.*.*.*.*.*.*.*.*.*.T@R V R V V V V R V V V R                       ",
"                        S S S S S S S S S S S S C+U@*.*.*.*.*.*.*.*.*.*.*.*.=@V@V V V V V V R V V V V R V                       ",
"                        S S S S S S S S S S S S S a+W@*.*.*.*.*.*.*.*.*.*.X@Y@V V V V V V V V V V R V V R                       ",
"                        S S S S S S S S S S S S S S S Z@6@*.*.*.*.*.*.*.F.c V V V R V V V V R V V V R V                         ",
"                        @+S S S S S S S S S S S S S S L.`@ #*.*.*.*..+.#R V V V V V V V R V V V V R V V                         ",
"                          S S S S S S S S S S S S S S L.*++#@#*.*.##$#X+R V V V R V V V V V V R V V V V                         ",
"                          S S S S S S S S S S S S S S L.M.R+%#&#*#=#$@X+R V V V V V V V R V V V R V R                           ",
"                            S S S S S S S S S S S S S L.M.k@S++@1@#@W+X+R V V V V V V V V V V V V V                             ",
"                              @+S S S S S S S S S S S S *+R+S+8@@@#@W+%@R V V V V V V R V V V R V                               ",
"                                @+S S S S S S S S S S L.*+R+S++@1@#@W+X+R V V V V R V V V R V V                                 ",
"                                  @+S S S S S S S S S L.M.k@S+8@1@#@W+X+R V V V V V V V V V R                                   ",
"                                      S S S S S S S S L.*+R+S++@@@-#W+X+R V V V V V V V V 9.                                    ",
"                                        S S S S S S S L.M.k@S+8@@@#@$@%@R V V V V V V V                                         ",
"                                            @+S S S S L.M.k@S++@1@#@W+X+R V V V V V 9.                                          ",
"                                              S S S S L.*+R+S++@@@#@W+X+R V V V V                                               ",
"                                                  S S L.*+R+;#+@@@#@W+X+R V V R                                                 ",
"                                                    S L.M.k@S+8@@@#@$@%@9.V                                                     ",
"                                                        *+R+S++@1@#@W+X+9.                                                      ",
"                                                          >#S++@1@#@$@                                                          ",
"                                                              8@,#'#                                                            "};
