/* XPM */
static char *image[] = {
"64 64 120 2",
"   c None",
"00 c #898989",
"10 c #8d8d8d",
"20 c #8e8e8e",
"30 c #b2b2b2",
"40 c #8f8f8f",
"50 c #909090",
"60 c #b4b4b4",
"70 c #919191",
"80 c #b5b5b5",
"90 c #929292",
":0 c #b7b7b7",
";0 c #939393",
"A0 c #b8b8b8",
"B0 c #949494",
"C0 c #b9b9b9",
"D0 c #959595",
"E0 c #bababa",
"F0 c #969696",
"G0 c #979797",
"H0 c #dedede",
"I0 c #bdbdbd",
"J0 c #989898",
"K0 c #bebebe",
"L0 c #999999",
"M0 c #bfbfbf",
"N0 c #c0c0c0",
"O0 c #9a9a9a",
"P0 c #c1c1c1",
"Q0 c #9b9b9b",
"R0 c #c2c2c2",
"S0 c #9c9c9c",
"T0 c #c3c3c3",
"U0 c #9d9d9d",
"V0 c #e9e9e9",
"W0 c #c4c4c4",
"X0 c #c5c5c5",
"Y0 c #9e9e9e",
"Z0 c #c6c6c6",
"a0 c #9f9f9f",
"b0 c #e4e4e4",
"c0 c #c7c7c7",
"d0 c #a0a0a0",
"e0 c #c8c8c8",
"f0 c #a1a1a1",
"g0 c #c9c9c9",
"h0 c #ececec",
"i0 c #cacaca",
"j0 c #a2a2a2",
"k0 c #cbcbcb",
"l0 c #a4a4a4",
"m0 c #cdcdcd",
"n0 c #a5a5a5",
"o0 c #cecece",
"p0 c #cfcfcf",
"q0 c #a6a6a6",
"r0 c #ededed",
"s0 c #d0d0d0",
"t0 c #a7a7a7",
"u0 c #f0f0f0",
"v0 c #d1d1d1",
"w0 c #a8a8a8",
"x0 c #e3e3e3",
"y0 c #f0f0f1",
"z0 c #f6f6f7",
"01 c #a9a9a9",
"11 c #dfdfdf",
"21 c #ebebeb",
"31 c #eaeaea",
"41 c #b0b0b0",
"51 c #b6b6b6",
"61 c #f1f1f1",
"71 c #dcdcdc",
"81 c #e5e4e5",
"91 c #dfdedf",
":1 c #d2d1d2",
";1 c #dddcdd",
"A1 c #d4d4d4",
"B1 c #aaaaaa",
"C1 c #e2e2e2",
"D1 c #e5e5e5",
"E1 c #eeeeee",
"F1 c #f2f2f2",
"G1 c #d5d5d5",
"H1 c #ababab",
"I1 c #e1e1e1",
"J1 c #e8e8e8",
"K1 c #bcbcbc",
"L1 c #f3f3f3",
"M1 c #d6d6d6",
"N1 c #acacac",
"O1 c #d7d7d7",
"P1 c #adadad",
"Q1 c #e7e7e7",
"R1 c #d8d8d8",
"S1 c #e6e6e6",
"T1 c #efefef",
"U1 c #e0e0e0",
"V1 c #d2d2d2",
"W1 c #f4f4f4",
"X1 c #fefefe",
"Y1 c #d9d9d9",
"Z1 c #aeaeae",
"a1 c #fafafa",
"b1 c #f5f5f5",
"c1 c #dadada",
"d1 c #afafaf",
"e1 c #f8f8f8",
"f1 c #fbfbfb",
"g1 c #dbdbdb",
"h1 c #b1b1b1",
"i1 c #b3b3b3",
"j1 c #d3d3d3",
"k1 c #f9f9f9",
"l1 c #fdfdfd",
"m1 c #fcfcfc",
"n1 c #f6f6f6",
"o1 c #ffffff",
"p1 c #f7f7f7",
"q1 c #dddddd",
"                                                                                                                                ",
"                                                                                                                                ",
"                                                                                                                                ",
"                                                                                                                                ",
"                                                                                                                                ",
"                      q1q1q1q1q1q1q1q1q1q1q1q1q1q1q1q1q1q1q1q1q1q1q1q1q1q1q1q1q1q1q1q1q1q1q1q1q1q1q1q1q1q1                      ",
"                      q1q1q1q1q1q1q1q1q1q1q1q1q1q1q1q1q1q1q1q1q1q1q1q1q1q1q1q1q1q1q1q1q1q1q1q1q1q1q1q1q1q1                      ",
"                      q1q1q1q1q1q1q1q1q1q1q1q1q1q1q1q1q1q1q1q1q1q1q1q1q1q1q1q1q1q1q1q1q1q1q1q1q1q1q1q1q1q1                      ",
"                      q1q1p1o1o1n1m1o1o1o1o1o1o1o1o1o1o1o1o1o1o1o1o1o1o1o1o1o1o1o1l1l1l1l1l1l1l1l1l1k1j1q1                      ",
"                      q1q1p1o1o1n1m1o1o1o1o1o1o1o1o1o1o1o1o1o1o1o1o1o1o1o1o1o1o1o1m1m1l1l1l1l1l1l1l1k1i1j1                      ",
"                      q1q1p1o1o1n1m1o1o1o1o1o1o1o1o1o1o1o1o1o1o1o1o1o1o1o1o1o1o1o1m1k1m1l1l1l1l1l1l1k1h1i1                      ",
"                      g1g1n1o1o1n1m1o1o1o1o1o1o1o1o1o1o1o1o1o1o1o1o1o1o1o1o1o1o1o1m1k1k1f1l1l1l1l1l1e1d1d1                      ",
"                      c1c1n1o1o1b1m1o1o1o1o1o1o1o1o1o1o1o1o1o1o1o1o1o1o1o1o1o1o1o1f1e1k1e1a1l1l1l1l1e1Z1Z1                      ",
"                      Y1Y1b1X1X1W1f1X1X1V1V1V1V1V1V1U1X1V1V1V1V1V1T1T1V1V1V1V1V1V1S1W1e1e1p1a1l1l1l1e1Z1Z1                      ",
"                      R1R1W1X1X1W1f1X1X1j1j1j1j1j1j1U1X1j1j1j1j1j1T1T1j1j1j1j1j1j1Q1W1p1e1p1p1a1l1l1e1P1P1                      ",
"                      O1O1W1X1X1W1f1X1X1X1X1X1X1X1X1X1X1X1X1X1X1X1X1X1X1X1X1X1X1X1f1e1p1p1p1p1p1a1l1e1N1N1                      ",
"                      M1M1W1X1X1L1a1l1l1K1K1K1K1K1K1K1K1K1J1J1K1K1K1V1l1K1K1K1K1K1I1n1p1p1p1p1p1p1a1p1H1H1                      ",
"                      G1G1W1X1X1F1k1l1l1J1J1J1J1J1J1J1J1J1n1n1J1J1J1E1l1J1J1J1J1J1D1c1c1c1C1S1S1S1S1C1B1B1                      ",
"                      A1A1W1X1X1F1k1l1l1J1J1J1J1J1J1J1J1J1J1E1l1J1J1J1J1J1J1E1l1J1J1;1:1:1918181818171B1B1                      ",
"                      j1j1L1l1l161e1m1m1K1K1K1K1K1K1K1K1K1K1V1m1K1K1K1K1K1K1V1m1K1K1K15141O131313121110101                      ",
"                      V1V1F1l1l161e1m1m1m1m1m1m1m1m1m1m1m1m1m1m1m1m1m1m1m1m1m1m1m1m1m1m1z0y0y0y0y0y0x0w0w0                      ",
"                      v0v0F1l1l1u0e1m1m1v0v0v0v0v0v0v0v0m111v0v0v0E1E1v0v0v0v0v0m111v0v0v021b1n1n1n1S1t0t0                      ",
"                      s0s061m1m1T1p1f1f1V1V1V1V1V1V1V1V1f111V1V1V1r0r0V1V1V1V1V1f111V1V1V1r0a1k1k1k1Q1q0q0                      ",
"                      p0p061m1m1T1p1f1f1f1f1f1f1f1f1f1f1f1f1f1f1f1f1f1f1f1f1f1f1f1f1f1f1f1f1f1f1f1f1J1q0q0                      ",
"                      o0o061m1m1E1n1a1a1K1K1K1K1K1x0S1K1K1K1K1K1K1K1K1K1a1a1a1a1a1a1a1a1a1a1a1a1a1a1Q1n0n0                      ",
"                      m0m061m1m1E1n1a1a1S1S1S1S1S1L1W1S1S1S1S1S1S1S1S1S1a1a1a1a1a1a1a1a1a1a1a1a1a1a1Q1l0l0                      ",
"                      k0k0u0m1m1r0n1a1a1a1a1a1a1a1a1a1a1a1a1a1a1a1a1a1a1a1a1a1a1a1a1a1a1a1a1a1a1a1a1Q1j0j0                      ",
"                      i0i0T1f1f1h0b1k1k1k1k1k1k1k1k1k1k1k1k1k1k1k1k1k1k1k1k1k1k1k1k1k1k1k1k1k1k1k1k1S1j0j0                      ",
"                      g0g0E1f1f1h0b1k1k1k1k1k1k1k1k1k1k1k1k1k1k1k1k1k1k1k1k1k1k1k1k1k1k1k1k1k1k1k1k1D1f0f0                      ",
"                      e0e0E1f1f1h0b1k1k1s0s0s0s0s0s0s0s0s0s0s0s0s02121s0s0s0s0s0s02121s0s021k1k1k1k1D1d0d0                      ",
"                      c0c0E1f1f131L1e1e1v0v0v0v0v0v0v0v0v0v0v0v0v02121v0v0v0v0v0v02121v0v021e1e1e1e1b0a0a0                      ",
"                      Z0Z0r0f1f131L1e1e1e1e1e1e1e1e1e1e1e1e1e1e1e1e1e1e1e1e1e1e1e1e1e1e1e1e1e1e1e1e1x0Y0Y0                      ",
"                      X0X0r0f1f131L1e1e1K1K1K1K1K1C1b0K1K1K1K1K1K1K1K1K1K1b0b0K1K1K1K1K1b1e1e1e1e1e1x0Y0Y0                      ",
"                      W0W0r0a1a1V0F1p1p1b0b0b0b0b0u061b0b0b0b0b0b0b0b0b0b06161b0b0b0b0b0n1p1p1p1p1p1x0U0U0                      ",
"                      T0T0h0a1a1V0F1p1p1b0b0b0b0b0b0b0b0b061h0O1O1O1U1p1p1p1p1p1p1p1p1p1p1p1p1p1p1p1C1S0S0                      ",
"                      R0R0h0a1a1J1F1p1p1K1K1K1K1K1K1K1K1K1b0O1K1K1K1T0p1p1p1p1p1p1p1p1p1p1p1p1p1p1p1C1Q0Q0                      ",
"                      P0P021k1k1J161n1n1n1n1n1n1n1n1n1n1n1n1n1n1n1n1n1n1n1n1n1n1n1n1n1n1n1n1n1n1n1n1I1O0O0                      ",
"                      N0N021k1k1J161n1n1n1n1n1n1n1n1n1n1n1n1n1n1n1n1n1n1n1n1n1n1n1n1n1n1n1n1n1n1n1n1U1O0O0                      ",
"                      M0M021k1k1J161n1n1n1n1n1n1n1n1n1n1n1n1n1n1n1n1n1n1n1n1n1n1n1n1n1n1n1n1n1n1n1n1U1L0L0                      ",
"                      K0K031k1k1S1u0b1b1b1b1b1b1b1b1b1b1b1b1b1b1b1b1b1b1b1b1b1b1b1b1b1b1b1b1b1b1b1b111J0J0                      ",
"                      I0I031k1k1S1u0b1b1K1K1K1K1K1K1K1K1K1K1K1K1K1C1C1K1K1K1K1K1b1p0K1K1K1C1b1b1b1b1H0G0G0                      ",
"                      K1K1V0k1k1S1u0b1b1C1C1C1C1C1C1C1C1C1C1C1C1C1T1T1C1C1C1C1C1b1J1C1C1C1T1b1b1b1b1H0F0F0                      ",
"                      E0E0V0e1e1D1T1W1W1C1C1C1C1C1C1C1C1C1E1E1C1C1C1C1C1W1Q1C1C1C1C1C1C1C1E1W1W1W1W1H0D0D0                      ",
"                      C0C0J1e1e1b0E1W1W1K1K1K1K1K1K1K1K1K1C1C1K1K1K1K1K1W1p0K1K1K1K1K1K1K1C1W1W1W1W1q1B0B0                      ",
"                      A0A0J1p1p1x0r0L1L1L1L1L1L1L1L1L1L1L1L1L1L1L1L1L1L1L1L1L1L1L1L1L1L1L1L1L1L1L1L171;0;0                      ",
"                      :0:0J1p1p1x0r0L1L1o0o0o0o0o0Q1Q1o0o0o0o0o0o0o0o0o0o0Q1L1L1L1L1L1L1L1L1L1L1L1L1719090                      ",
"                      5151Q1p1p1x0r0L1L1p0p0p0p0p0Q1Q1p0p0p0p0p0p0p0p0p0p0Q1L1L1L1L1L1L1L1L1L1L1L1L1g19090                      ",
"                      8080S1p1p1C1h0F1F1F1F1F1F1F1F1F1F1F1F1F1F1F1F1F1F1F1F1F1F1F1F1F1F1F1F1F1F1F1F1c17070                      ",
"                      6060S1p1p1I1h0F1F1K1K1K1K1K1K1K1K1K1U1U1K1K1K1K1K1K1K1K1K1F1F1F1F1F1F1F1F1F1F1c15050                      ",
"                      i1i1D1p1p1I1h0F1F1U1U1U1U1U1U1U1U1U1h0h0U1U1U1U1U1U1U1U1U1F1F1F1F1F1F1F1F1F1F1A14040                      ",
"                      3030D1p1p1I1h0F1F1F1F1F1F1F1F1F1F1F1F1F1F1F1F1F1F1F1F1F1F1F1F1F1F1F1F1F1F1F1F1v02020                      ",
"                      h1h1D1p1p1I1h0F1F1F1F1F1F1F1F1F1F1F1F1F1F1F1F1F1F1F1F1F1F1F1F1F1F1F1F1F1F1F1F1v02020                      ",
"                      h1h1D1p1p1U1h0F1F1F1F1F1F1F1F1F1F1F1F1F1F1F1F1F1F1F1F1F1F1F1F1F1F1F1F1F1F1F1F1v02020                      ",
"                      h1h1D1p1p1U1h0F1F1F1F1F1F1F1F1F1F1F1F1F1F1F1F1F1F1F1F1F1F1F1F1F1F1F1F1F1F1F1F1v02020                      ",
"                      h1h1A1H0H0e0s0j1j1j1j1j1j1j1j1j1j1j1j1j1j1j1j1j1j1j1j1j1j1j1j1j1j1j1j1j1j1j1j1N02020                      ",
"                      h1h1l0D0D0D0D0D0D0D0D0D0D0D0D0D0D0D0D0D0D0D0D0D0D0D0D0D0D0D0D0D0D0D0D0D0D0D0D0S02020                      ",
"                      h1h1t0201010101010101010101010101010101010101010101010101010101010101010101010102020                      ",
"                      h1h1h1q02020202020202020202020202020202020202020202020202020202020202020202020202020                      ",
"                      30414141a090909090909090909090707070707070707070707070707070505050505050505050505000                      ",
"                                                                                                                                ",
"                                                                                                                                ",
"                                                                                                                                ",
"                                                                                                                                ",
"                                                                                                                                "};
