/* XPM */
static char *image[] = {
"48 48 210 2",
"   c None",
"00 c #a7b0b7",
"10 c #a7b0b6",
"20 c #abb4ba",
"30 c #bac3c9",
"40 c #bac3c8",
"50 c #abb4bb",
"60 c #aab3ba",
"70 c #ccd2d6",
"80 c #d1d8dc",
"90 c #aab4ba",
":0 c #b5bec4",
";0 c #c7ced2",
"A0 c #b7bfc5",
"B0 c #bcc4c9",
"C0 c #5b6164",
"D0 c #151d22",
"E0 c #bbc4c9",
"F0 c #cbd1d5",
"G0 c #0a1013",
"H0 c #24353f",
"I0 c #2e3538",
"J0 c #252a2d",
"K0 c #1a232a",
"L0 c #2c2f2b",
"M0 c #bfc5c8",
"N0 c #21262a",
"O0 c #263742",
"P0 c #d0a906",
"Q0 c #c39f08",
"R0 c #c4c6ba",
"S0 c #9dafb6",
"T0 c #033647",
"U0 c #5f7e89",
"V0 c #9cadb5",
"W0 c #24292c",
"X0 c #1a242b",
"Y0 c #464c36",
"Z0 c #d2ab09",
"a0 c #e3c027",
"b0 c #dab20c",
"c0 c #bc9a0e",
"d0 c #99acb3",
"e0 c #c2c7cb",
"f0 c #2b2e2a",
"g0 c #d0aa09",
"h0 c #eed451",
"i0 c #f0d857",
"j0 c #d6b215",
"k0 c #48582b",
"l0 c #528898",
"m0 c #9ed4e4",
"n0 c #ace2f2",
"o0 c #9fd4e4",
"p0 c #86bbcb",
"q0 c #548999",
"r0 c #144859",
"s0 c #5c7c88",
"t0 c #c3c7c9",
"u0 c #c4a10e",
"v0 c #e6c83e",
"w0 c #dbbb28",
"x0 c #334f35",
"y0 c #5a92a4",
"z0 c #a1ddee",
"01 c #a6e2f4",
"11 c #a1ddef",
"21 c #5b93a5",
"31 c #05394a",
"41 c #005772",
"51 c #69ceea",
"61 c #c4c5bb",
"71 c #be9d14",
"81 c #48592c",
"91 c #7bb9cc",
":1 c #9ddff2",
";1 c #7bbacd",
"A1 c #0e4355",
"B1 c #2e778d",
"C1 c #98abb3",
"D1 c #04394a",
"E1 c #74b7cb",
"F1 c #95dcf1",
"G1 c #75b8cc",
"H1 c #04394b",
"I1 c #4da4be",
"J1 c #4c8ea2",
"K1 c #8cd9f0",
"L1 c #4d8fa4",
"M1 c #69cdeb",
"N1 c #0e4557",
"O1 c #7fd1e9",
"P1 c #83d6ef",
"Q1 c #7fd1ea",
"R1 c #10485a",
"S1 c #008cb7",
"T1 c #607e8a",
"U1 c #3a7f95",
"V1 c #7bd3ee",
"W1 c #3c8297",
"X1 c #2b5564",
"Y1 c #57aac5",
"Z1 c #72d0ed",
"a1 c #59aec7",
"b1 c #285462",
"c1 c #154454",
"d1 c #5fbedc",
"e1 c #69cdec",
"f1 c #60bfde",
"g1 c #003e51",
"h1 c #043748",
"i1 c #5fc8e7",
"j1 c #61cbeb",
"k1 c #5fc9e8",
"l1 c #023648",
"m1 c #144354",
"n1 c #50bbda",
"o1 c #58c8e9",
"p1 c #51bcdc",
"q1 c #094152",
"r1 c #2a5563",
"s1 c #3ca3c1",
"t1 c #4fc5e8",
"u1 c #3da4c3",
"v1 c #5e7e88",
"w1 c #227893",
"x1 c #47c2e7",
"y1 c #237a95",
"z1 c #2e778e",
"02 c #9caeb6",
"12 c #074457",
"22 c #3cbbe1",
"32 c #3ebfe6",
"42 c #3cbbe2",
"52 c #074458",
"62 c #4da5bf",
"72 c #d1d7db",
"82 c #295462",
"92 c #1d7e9d",
":2 c #35bce5",
";2 c #1e809e",
"A2 c #004a62",
"B2 c #98aab2",
"C2 c #239bc1",
"D2 c #2db9e4",
"E2 c #239dc3",
"F2 c #02384a",
"G2 c #94a7af",
"H2 c #5b7b87",
"I2 c #044054",
"J2 c #1c9ac2",
"K2 c #24b6e3",
"L2 c #1c9ac1",
"M2 c #034053",
"N2 c #5b7b86",
"O2 c #005671",
"P2 c #013849",
"Q2 c #1aafde",
"R2 c #1bb3e2",
"S2 c #1ab0df",
"T2 c #0f7b9d",
"U2 c #01384b",
"V2 c #045872",
"W2 c #68cde9",
"X2 c #2f788f",
"Y2 c #024256",
"Z2 c #097191",
"a2 c #0f93bc",
"b2 c #11a5d3",
"c2 c #13afdf",
"d2 c #11a5d2",
"e2 c #0f95bd",
"f2 c #097090",
"g2 c #024358",
"h2 c #597985",
"i2 c #00a8dc",
"j2 c #4ba2bc",
"k2 c #145265",
"l2 c #003445",
"m2 c #004a61",
"n2 c #97aab1",
"o2 c #6aceeb",
"p2 c #008bb5",
"q2 c #5d7d87",
"r2 c #275261",
"s2 c #003e53",
"t2 c #013547",
"u2 c #094253",
"v2 c #145164",
"w2 c #2d768d",
"x2 c #4fa6c1",
"y2 c #00a9dd",
"z2 c #6acfec",
"03 c #d2d7db",
"13 c #bcc5c9",
"23 c #bcc4cb",
"33 c #00aade",
"43 c #0cacde",
"53 c #cfd5da",
"63 c #bbc5c9",
"73 c #bbc3c8",
"83 c #c7ced3",
"93 c #c6ced3",
":3 c #bac4c9",
";3 c #cbd2d6",
"A3 c #d2d8dc",
"B3 c #ccd2d7",
"C3 c #bec6ca",
"D3 c #bcc5ca",
"E3 c #bec6cb",
"                                                                                                ",
"                                                                                                ",
"                                                                                                ",
"                                                                                                ",
"            E3D3D3D3D3D3D3D3D3D3D3D3D3D3D3D3D3D3D3D3D3D3D3D3D3D3D3D3D3D3D3D3D3D3D3E3            ",
"          C3B3A3A3A3A3A3A3A3A3A3A3A3A3A3A3A3A3A3A3A3A3A3A3A3A3A3A3A3A3A3A3A3A3A3A3;3C3          ",
"        :393A3A3A3A3A3A3A3A3A3A3A3A3A3A3A3A3A3A3A3A3A3A3A3A3A3A3A3A3A3A3A3A3A3A3A3A38373        ",
"        6353A343333333333343A3A343333333333343A3A343333333333343A3A343333333333343A35323        ",
"        1303A333z2z2z2z2z233A3A333z2z2z2z2z233A3A333z2z2z2z2z233A3A333z2z2z2z2z233A30313        ",
"        D3A3A333z2z2z2z2z233A3A333z2z2z2z2z233A3A333z2z2z2z2z233A3A333z2z2z2z2z233A3A3D3        ",
"        D3A3A333z2z2z2z2z233A3A3y2x2w2v2u2t2s2r2q2p2o2z2z2z2z233A3A333z2z2z2z2z233A3A3D3        ",
"        D3A3A333z2z2z2z2z233A3n2m2l2l2l2l2l2l2l2l2l2k2j2z2z2z233A3A333z2z2z2z2z233A3A3D3        ",
"        D3A3A333z2z2z2z2z2i2h2l2l2g2f2e2d2c2b2a2Z2Y2l2l2X2W2z233A3A333z2z2z2z2z233A3A3D3        ",
"        D3A3A34333333333i2V2l2U2T2S2R2R2R2R2R2R2R2Q2T2P2l2O2i243A3A343333333333343A3A3D3        ",
"        D3A3A3A3A3A3A3A3N2l2M2L2K2K2K2K2K2K2K2K2K2K2K2J2I2l2H2A3A3A3A3A3A3A3A3A3A3A3A3D3        ",
"        D3A3A3A3A3A3A3G2l2F2E2D2D2D2D2D2D2D2D2D2D2D2D2D2C2P2l2B2A3A3A3A3A3A3A3A3A3A3A3D3        ",
"        D3A3A3433333y2A2l2;2:2:2:2:2:2:2:2:2:2:2:2:2:2:2:292l28272A343333333333343A3A3D3        ",
"        D3A3A333z2z262l252423232323232323232323232323232322212l202A333z2z2z2z2z233A3A3D3        ",
"        D3A3A333z2z2z1l2y1x1x1x1x1x1x1x1x1x1x1x1x1x1x1x1x1x1w1l2v1A333z2z2z2z2z233A3A3D3        ",
"        D3A3A333z2z2v2l2u1t1t1t1t1t1t1t1t1t1t1t1t1t1t1t1t1t1s1l2r1A333z2z2z2z2z233A3A3D3        ",
"        D3A3A333z2z2q1l2p1o1o1o1o1o1o1o1o1o1o1o1o1o1o1o1o1o1n1l2m1A333z2z2z2z2z233A3A3D3        ",
"        D3A3A333z2z2l1l2k1j1j1j1j1j1j1j1j1j1j1j1j1j1j1j1j1j1i1l2h1A333z2z2z2z2z233A3A3D3        ",
"        D3A3A3433333g1l2f1e1e1e1e1e1e1e1e1e1e1e1e1e1e1e1e1e1d1l2c1A343333333333343A3A3D3        ",
"        D3A3A3A3A3A3b1l2a1Z1Z1Z1Z1Z1Z1Z1Z1Z1Z1Z1Z1Z1Z1Z1Z1Z1Y1l2X1A3A3A3A3A3A3A3A3A3A3D3        ",
"        D3A3A3A3A3A3H2l2W1V1V1V1V1V1V1V1V1V1V1V1V1V1V1V1V1V1U1l2T1A3A3A3A3A3A3A3A3A3A3D3        ",
"        D3A3A3433333S1l2R1Q1P1P1P1P1P1P1P1P1P1P1P1P1P1P1P1O1N1l202A3A3A3A3A3A3A3A3A3A3D3        ",
"        D3A3A333z2z2M1k2l2L1K1K1K1K1K1K1K1K1K1K1K1K1K1K1K1J1l2r172A3A3A3A3A3A3A3A3A3A3D3        ",
"        D3A3A333z2z2z2I1l2H1G1F1F1F1F1F1F1F1F1F1F1F1F1F1E1D1l2C1A3A3A3A3A3A3A3A3A3A3A3D3        ",
"        D3A3A333z2z2z2z2B1l2A1;1:1:1:1:1:1:1:1:1:1:1:191A1l2817161A3A3A3A3A3A3A3A3A3A3D3        ",
"        D3A3A333z2z2z2z25141l231211101010101010101z0y031l2x0w0v0u0t0A3A3A3A3A3A3A3A3A3D3        ",
"        D3A3A333z2z2z2z2z2i2s0l2l2r0q0p0o0n0m0p0l0r0l2l2k0j0i0h0g0f0e0A3A3A3A3A3A3A3A3D3        ",
"        D3A3A343333333333343A3n2r1l2l2l2l2l2l2l2l2l2r1d0c0b0a0Z0Y0X0W0e0A3A3A3A3A3A3A3D3        ",
"        D3A3A3A3A3A3A3A3A3A3A3A372V0U082m1T0m1r1v1S072A3R0Q0P0Y0O0O0X0N0M0A3A3A3A3A3A3D3        ",
"        D3A3A3A3A3A3A3A3A3A3A3A3A3A3A3A3A3A3A3A3A3A3A3A3A3t0L0K0O0O0O0X0N0M0A3A3A3A3A3D3        ",
"        D3A3A343333333333343A3A343333333333343A3A3A3A3A3A3A3e0J0K0O0O0O0X0N0M0A3A3A3A3D3        ",
"        D3A3A333z2z2z2z2z233A3A333z2z2z2z2z233A3A3A3A3A3A3A3A3e0J0K0O0O0O0X0N0M0A3A3A3D3        ",
"        D3A3A333z2z2z2z2z233A3A333z2z2z2z2z233A3A3A3A3A3A3A3A3A3e0J0K0O0O0O0X0N0M0A3A3D3        ",
"        D3A3A333z2z2z2z2z233A3A333z2z2z2z2z233A3A3A3A3A3A3A3A3A3A3e0W0X0O0O0O0X0I0A3A3D3        ",
"        D303A333z2z2z2z2z233A3A333z2z2z2z2z233A3A3A3A3A3A3A3A3A3A3A3e0W0X0O0O0H0G0F003D3        ",
"        E053A333z2z2z2z2z233A3A333z2z2z2z2z233A3A3A3A3A3A3A3A3A3A3A3A3e0W0X0H0D0C0A353B0        ",
"        A093A343333333333343A3A343333333333343A3A3A3A3A3A3A3A3A3A3A3A3A3e0I0G0C072A3;0:0        ",
"        90D3;380A3A3A3A3A3A3A3A3A3A3A3A3A3A3A3A3A3A3A3A3A3A3A3A3A3A3A3A3A3A370A380;3D360        ",
"          5040D3D3D3D3D3D3D3D3D3D3D3D3D3D3D3D3D3D3D3D3D3D3D3D3D3D3D3D3D3D3D3D3D3D33020          ",
"            100000000000000000000000000000000000000000000000000000000000000000000000            ",
"                                                                                                ",
"                                                                                                ",
"                                                                                                ",
"                                                                                                "};
